# xmcd CD database file
#
# Track frame offsets:
#	150
#	14362
#	24967
#	38867
#	48347
#	60490
#	73212
#	85410
#	98075
#	108435
#	125122
#	146210
#
# Disc length: 2136 seconds
#
# Revision: 0
# Processed by: cddbd v1.5.1PL0 Copyright (c) Steve Scherf et al.
# Submitted via: CDex 1.51
#
DISCID=a708560c
DTITLE=Johnny Winter - Livin' In The Blues
DYEAR=1998
DGENRE=Blues
TTITLE0=Ease My Pain
TTITLE1=That's What Love Does
TTITLE2=Five After Four A.M.
TTITLE3=Livin' In The Blues
TTITLE4=Leavin' Blues
TTITLE5=Parchman Farm
TTITLE6=Bad News
TTITLE7=32-20 Blues
TTITLE8=Kindhearted Woman Blues
TTITLE9=Goin Down Slow
TTITLE10=Low Down Gal Of Mine
TTITLE11=Road Runner
EXTD=YEAR: 1998
EXTT0=
EXTT1=
EXTT2=
EXTT3=
EXTT4=
EXTT5=
EXTT6=
EXTT7=
EXTT8=
EXTT9=
EXTT10=
EXTT11=
PLAYORDER=
